<svg xmlns="http://www.w3.org/2000/svg" width="137.994" height="30.321" viewBox="0 0 137.994 30.321">
  <g id="Logo_Dark" transform="translate(-352 -80)">
    <path id="Subtraction_2" data-name="Subtraction 2" d="M99.04,40.321A15.027,15.027,0,0,1,84,25.282,15.269,15.269,0,0,1,99.282,10h8.859a27.313,27.313,0,0,0-6.837,7.063,32.868,32.868,0,0,0-2.688,5.063h.526a3.287,3.287,0,0,1,3.271,3.271v.526a32.8,32.8,0,0,0,5.063-2.684,28.048,28.048,0,0,0,6.845-6.511V25.04A15.269,15.269,0,0,1,99.039,40.321Zm11.731-17.245c-.681.556-1.423,1.123-2.2,1.682a32.637,32.637,0,0,1-5.39,2.875h0l-.766.342v.273A2.461,2.461,0,0,0,103.146,30a2.37,2.37,0,0,0,1.66.675c2.2-.032,3.99-2.038,4.927-3.9a10.27,10.27,0,0,0,1.038-3.693Zm-13.029.95a2.788,2.788,0,0,0-1.984.822h0a10.47,10.47,0,0,0-1.715,3.739,1.624,1.624,0,0,0,1.947,1.946,10.47,10.47,0,0,0,3.733-1.714,2.807,2.807,0,0,0-1.984-4.792Zm3.7-10.224h0A10.291,10.291,0,0,0,97.8,14.839,7.505,7.505,0,0,0,94.2,18.351a2.715,2.715,0,0,0,.272,2.549,2.807,2.807,0,0,0,2.1,1.227l.339-.761a32.766,32.766,0,0,1,2.876-5.391c.549-.764,1.106-1.5,1.656-2.172Zm7.045,4.587a2.337,2.337,0,1,1,2.337-2.337A2.337,2.337,0,0,1,108.486,18.39Z" transform="translate(268 70)" fill="#599700"/>
    <path id="NinjaDash" d="M17.656-21.947H14.434L7.279-33.125v11.177H4.212V-37.7H8.034L14.591-27.28V-37.7h3.067Zm6.333,0H21.034V-32.88h2.955ZM20.678-36.458a1.8,1.8,0,0,1,.533-1.3A1.738,1.738,0,0,1,22.5-38.3a1.756,1.756,0,0,1,1.289.533,1.782,1.782,0,0,1,.533,1.311,1.73,1.73,0,0,1-.533,1.267,1.756,1.756,0,0,1-1.289.533,1.756,1.756,0,0,1-1.289-.533,1.73,1.73,0,0,1-.533-1.266ZM30.1-28.236v6.289H27.144V-32.88h2.867v1.355a3.049,3.049,0,0,1,1.333-1.222,4.109,4.109,0,0,1,1.822-.422,3.618,3.618,0,0,1,2.944,1.211,4.708,4.708,0,0,1,1.011,3.122v6.889H34.166v-6.378a2.384,2.384,0,0,0-.5-1.578,1.869,1.869,0,0,0-1.522-.6,1.866,1.866,0,0,0-1.489.644,2.4,2.4,0,0,0-.556,1.62Zm10.022,6.955v-11.6h2.955v11.888a3.658,3.658,0,0,1-.933,2.6,3.242,3.242,0,0,1-2.489,1,4.444,4.444,0,0,1-1.667-.244V-20.1a4.125,4.125,0,0,0,.911.111Q40.122-19.992,40.122-21.281ZM40.3-35.2a1.72,1.72,0,0,1-.533-1.278,1.8,1.8,0,0,1,.533-1.3,1.738,1.738,0,0,1,1.289-.544,1.756,1.756,0,0,1,1.289.533,1.782,1.782,0,0,1,.533,1.311,1.72,1.72,0,0,1-.533,1.278,1.775,1.775,0,0,1-1.289.52A1.775,1.775,0,0,1,40.3-35.2Zm5.266,10.277a2.914,2.914,0,0,1,.911-2.244,4.339,4.339,0,0,1,2.355-1.068l2.689-.4q.822-.111.822-.778a1.274,1.274,0,0,0-.478-1.022,2.074,2.074,0,0,0-1.367-.4,2.072,2.072,0,0,0-1.478.513,1.91,1.91,0,0,0-.611,1.267l-2.622-.556a3.846,3.846,0,0,1,1.4-2.511,4.814,4.814,0,0,1,3.29-1.089,4.882,4.882,0,0,1,3.6,1.167,4.068,4.068,0,0,1,1.154,2.989v5.378a10.057,10.057,0,0,0,.134,1.733H52.654a6.157,6.157,0,0,1-.111-1.311,3.562,3.562,0,0,1-3.222,1.624,3.8,3.8,0,0,1-2.723-.979A3.079,3.079,0,0,1,45.566-24.925Zm4.378,1.089a2.531,2.531,0,0,0,1.722-.589,2.455,2.455,0,0,0,.678-1.944v-.489l-2.467.378q-1.355.2-1.355,1.378a1.205,1.205,0,0,0,.378.9A1.436,1.436,0,0,0,49.943-23.836ZM61.5-24.792h2.444a4.691,4.691,0,0,0,3.4-1.289,4.956,4.956,0,0,0,1.333-3.733,4.994,4.994,0,0,0-1.333-3.744,4.64,4.64,0,0,0-3.376-1.3H61.5Zm2.555,2.844H58.432V-37.7h5.644a7.7,7.7,0,0,1,5.611,2.111,7.694,7.694,0,0,1,2.167,5.778,7.64,7.64,0,0,1-2.179,5.755A7.741,7.741,0,0,1,64.054-21.947Zm9.577-2.978a2.914,2.914,0,0,1,.911-2.244A4.339,4.339,0,0,1,76.9-28.238l2.689-.4q.822-.111.822-.778a1.274,1.274,0,0,0-.478-1.022,2.074,2.074,0,0,0-1.367-.4,2.072,2.072,0,0,0-1.478.513,1.91,1.91,0,0,0-.611,1.267l-2.622-.556a3.846,3.846,0,0,1,1.4-2.511,4.814,4.814,0,0,1,3.29-1.089,4.882,4.882,0,0,1,3.6,1.167A4.068,4.068,0,0,1,83.3-29.058v5.378a10.058,10.058,0,0,0,.134,1.733H80.72a6.159,6.159,0,0,1-.111-1.311,3.561,3.561,0,0,1-3.222,1.624,3.8,3.8,0,0,1-2.722-.978,3.079,3.079,0,0,1-1.033-2.313Zm4.376,1.089a2.531,2.531,0,0,0,1.722-.589,2.455,2.455,0,0,0,.678-1.944v-.489l-2.467.378q-1.355.2-1.355,1.378a1.205,1.205,0,0,0,.378.9,1.436,1.436,0,0,0,1.044.367ZM85.34-24.99l2.533-.556a1.7,1.7,0,0,0,.567,1.189,2.043,2.043,0,0,0,1.433.478,1.635,1.635,0,0,0,1.068-.311.967.967,0,0,0,.378-.778q0-.822-1.178-1.068L88.7-26.369a4.145,4.145,0,0,1-2.3-1.2,3.014,3.014,0,0,1-.767-2.067A3.278,3.278,0,0,1,86.8-32.169a4.218,4.218,0,0,1,2.922-1.044,5.466,5.466,0,0,1,1.955.322,3.435,3.435,0,0,1,1.311.822,4.074,4.074,0,0,1,.711,1.011,3.375,3.375,0,0,1,.311,1l-2.467.556a1.838,1.838,0,0,0-.522-1.022,1.706,1.706,0,0,0-1.278-.444,1.591,1.591,0,0,0-.989.311.94.94,0,0,0-.411.778q0,.8,1,.978l1.555.333a4.47,4.47,0,0,1,2.411,1.222,3.009,3.009,0,0,1,.833,2.133,3.394,3.394,0,0,1-1.111,2.533A4.337,4.337,0,0,1,89.9-21.612a5.812,5.812,0,0,1-2.067-.344,3.611,3.611,0,0,1-1.41-.889,4.386,4.386,0,0,1-.756-1.089,3.579,3.579,0,0,1-.323-1.057Zm14.133-3.376v6.419H96.519V-38.035h2.955v6.068a3.627,3.627,0,0,1,2.955-1.2,3.769,3.769,0,0,1,3.034,1.211,4.642,4.642,0,0,1,1.033,3.122v6.887h-2.955v-6.378a2.384,2.384,0,0,0-.5-1.578,1.869,1.869,0,0,0-1.522-.6,1.869,1.869,0,0,0-1.455.6,2.37,2.37,0,0,0-.59,1.533Z" transform="translate(383.493 124.596)" fill="#090e30"/>
  </g>
</svg>
