<svg id="angry" xmlns="http://www.w3.org/2000/svg" width="41.496" height="41.496" viewBox="0 0 41.496 41.496">
  <path id="Path_13239" data-name="Path 13239" d="M41.5,20.748A20.748,20.748,0,1,1,20.748,0,20.751,20.751,0,0,1,41.5,20.748Z" fill="#e24b4b"/>
  <path id="Path_13240" data-name="Path 13240" d="M93.545,72.8A20.743,20.743,0,0,1,56.64,85.8,20.741,20.741,0,0,0,85.791,56.64,20.658,20.658,0,0,1,93.545,72.8Z" transform="translate(-52.05 -52.05)" fill="#d03f3f"/>
  <g id="Group_11221" data-name="Group 11221" transform="translate(9.061 10.662)">
    <path id="Path_13241" data-name="Path 13241" d="M119.227,137.563a.81.81,0,0,1-.661-.342,10.39,10.39,0,0,0-6.169-4.061.81.81,0,0,1,.421-1.565,12.363,12.363,0,0,1,6.345,3.767L120.3,133.6a.81.81,0,1,1,1.36.879l-1.753,2.71a.812.812,0,0,1-.663.371Z" transform="translate(-111.797 -131.565)" fill="#3e4347"/>
    <ellipse id="Ellipse_3199" data-name="Ellipse 3199" cx="3.276" cy="3.724" rx="3.276" ry="3.724" transform="translate(0.81 5.92)" fill="#3e4347"/>
    <path id="Path_13242" data-name="Path 13242" d="M279.461,137.548h-.018a.814.814,0,0,1-.664-.371l-1.752-2.71a.81.81,0,1,1,1.362-.879l1.135,1.757a12.365,12.365,0,0,1,6.346-3.766.81.81,0,1,1,.421,1.565,10.4,10.4,0,0,0-6.17,4.063A.808.808,0,0,1,279.461,137.548Z" transform="translate(-263.516 -131.55)" fill="#3e4347"/>
    <ellipse id="Ellipse_3200" data-name="Ellipse 3200" cx="3.276" cy="3.724" rx="3.276" ry="3.724" transform="translate(16.013 5.92)" fill="#3e4347"/>
    <path id="Path_13243" data-name="Path 13243" d="M168.195,343.508a8.419,8.419,0,0,0-12,0,1.3,1.3,0,0,1-1.874-1.793,11.013,11.013,0,0,1,15.75,0,1.3,1.3,0,0,1-1.874,1.793Z" transform="translate(-150.541 -321.635)" fill="#3e4347"/>
  </g>
  <g id="Group_11222" data-name="Group 11222" transform="translate(13.951 18.302)">
    <path id="Path_13244" data-name="Path 13244" d="M362.26,227.312c-.28.113-.637-.122-.805-.526s-.069-.823.211-.936.648.121.805.526S362.54,227.2,362.26,227.312Z" transform="translate(-346.039 -225.82)" fill="#5a5f63"/>
    <path id="Path_13245" data-name="Path 13245" d="M173.019,227.312c-.28.113-.637-.122-.805-.526s-.069-.823.213-.936.648.121.805.526A.7.7,0,0,1,173.019,227.312Z" transform="translate(-172.136 -225.82)" fill="#5a5f63"/>
  </g>
</svg>
