<svg xmlns="http://www.w3.org/2000/svg" width="29.998" height="32.435" viewBox="0 0 29.998 32.435">
  <path id="award" d="M32.757,27.225l-4.512-7.792a11.489,11.489,0,0,0,1.4-5.528,11.655,11.655,0,1,0-23.31,0,11.489,11.489,0,0,0,1.4,5.528L3.219,27.225a1.665,1.665,0,0,0,1.449,2.5H9.446l2.431,4.1a1.744,1.744,0,0,0,1.449.833h.233a1.665,1.665,0,0,0,1.215-.816l3.213-5.528L21.2,33.885a1.665,1.665,0,0,0,1.215.8h.233a1.665,1.665,0,0,0,1.166-.466,1.448,1.448,0,0,0,.283-.35l2.431-4.1h4.779a1.69,1.69,0,0,0,1.449-2.547ZM13.309,29.773l-1.482-2.481a1.665,1.665,0,0,0-1.415-.816H7.531l2.381-4.129a11.655,11.655,0,0,0,5.944,3.064Zm4.679-7.543a8.325,8.325,0,1,1,8.325-8.325,8.325,8.325,0,0,1-8.325,8.325Zm7.576,4.246a1.665,1.665,0,0,0-1.415.816l-1.482,2.481L20.136,25.36A11.755,11.755,0,0,0,26.063,22.3l2.381,4.129Z" transform="translate(-2.996 -2.25)" fill="#fff"/>
</svg>
