<svg xmlns="http://www.w3.org/2000/svg" width="18.703" height="26.518" viewBox="0 0 18.703 26.518">
  <g id="bookmark" transform="translate(-79.25 0.75)">
    <path id="Path_13119" data-name="Path 13119" d="M169.69,102.563l-.983-1.993a.078.078,0,0,0-.14,0l-.982,1.993a.312.312,0,0,1-.236.171l-2.2.319a.078.078,0,0,0-.043.133l1.589,1.549a.312.312,0,0,1,.09.277l-.375,2.188a.078.078,0,0,0,.114.082c2.147-1.129,2-1.069,2.11-1.069s-.032-.058,2.11,1.069a.078.078,0,0,0,.114-.082l-.375-2.188a.312.312,0,0,1,.09-.277l1.589-1.549a.078.078,0,0,0-.043-.133l-2.2-.319a.312.312,0,0,1-.236-.171Z" transform="translate(-81.762 -96.599)" fill="none"/>
    <path id="Path_13120" data-name="Path 13120" d="M96.03,0H81.173A1.174,1.174,0,0,0,80,1.172V24.027a.973.973,0,0,0,1.573.762l6.786-5.352a.39.39,0,0,1,.485,0L95.63,24.79a.973.973,0,0,0,1.573-.762V1.172A1.174,1.174,0,0,0,96.03,0ZM93.7,8.655l-1.946,1.9a.1.1,0,0,0-.028.086l.46,2.677a.783.783,0,0,1-1.135.824l-2.406-1.264a.1.1,0,0,0-.091,0L86.15,14.137a.782.782,0,0,1-1.135-.824l.459-2.677a.1.1,0,0,0-.028-.086L83.5,8.655a.781.781,0,0,1,.434-1.333l2.69-.39a.1.1,0,0,0,.074-.053l1.2-2.435a.783.783,0,0,1,1.4,0l1.2,2.435a.1.1,0,0,0,.074.053l2.69.39A.781.781,0,0,1,93.7,8.655Z" fill="none" stroke="#fa8b0c" stroke-width="1.5"/>
  </g>
</svg>
