<svg xmlns="http://www.w3.org/2000/svg" width="15" height="16.5" viewBox="0 0 15 16.5">
  <path id="calendar-alt" d="M9.5,14.5a.75.75,0,1,0-.75-.75A.75.75,0,0,0,9.5,14.5Zm3.75,0a.75.75,0,1,0-.75-.75A.75.75,0,0,0,13.25,14.5Zm0-3a.75.75,0,1,0-.75-.75A.75.75,0,0,0,13.25,11.5Zm-3.75,0a.75.75,0,1,0-.75-.75A.75.75,0,0,0,9.5,11.5Zm5.25-9H14V1.75a.75.75,0,0,0-1.5,0V2.5h-6V1.75a.75.75,0,1,0-1.5,0V2.5H4.25A2.25,2.25,0,0,0,2,4.75v10.5A2.25,2.25,0,0,0,4.25,17.5h10.5A2.25,2.25,0,0,0,17,15.25V4.75A2.25,2.25,0,0,0,14.75,2.5Zm.75,12.75a.75.75,0,0,1-.75.75H4.25a.75.75,0,0,1-.75-.75V8.5h12ZM15.5,7H3.5V4.75A.75.75,0,0,1,4.25,4H5v.75a.75.75,0,1,0,1.5,0V4h6v.75a.75.75,0,1,0,1.5,0V4h.75a.75.75,0,0,1,.75.75ZM5.75,11.5A.75.75,0,1,0,5,10.75.75.75,0,0,0,5.75,11.5Zm0,3A.75.75,0,1,0,5,13.75.75.75,0,0,0,5.75,14.5Z" transform="translate(-2 -1)" fill="#fff"/>
</svg>
