<svg xmlns="http://www.w3.org/2000/svg" width="15" height="18.75" viewBox="0 0 15 18.75">
  <path id="file" d="M19,8.506a1.228,1.228,0,0,0-.056-.253V8.169a1,1,0,0,0-.178-.262h0L13.141,2.281h0a1,1,0,0,0-.263-.178h-.084l-.3-.1H6.813A2.813,2.813,0,0,0,4,4.813V17.938A2.813,2.813,0,0,0,6.813,20.75h9.375A2.812,2.812,0,0,0,19,17.938V8.506ZM13.375,5.2,15.8,7.625H13.375Zm3.75,12.741a.938.938,0,0,1-.938.938H6.813a.938.938,0,0,1-.937-.938V4.812a.937.937,0,0,1,.938-.937H11.5V8.563a.937.937,0,0,0,.938.937h4.688Z" transform="translate(-4 -2)" fill="#fff"/>
</svg>
