<svg xmlns="http://www.w3.org/2000/svg" width="25" height="24.807" viewBox="0 0 25 24.807">
  <g id="followers" transform="translate(-0.44)">
    <g id="Group_11097" data-name="Group 11097" transform="translate(0.44)">
      <g id="Group_11096" data-name="Group 11096" transform="translate(0)">
        <path id="Path_13123" data-name="Path 13123" d="M11.867,22.825h-8.5a.97.97,0,0,1-.789-.4.951.951,0,0,1-.141-.866A7.529,7.529,0,0,1,9.6,16.514a7.352,7.352,0,0,1,4.2,1.3.982.982,0,0,0,1.36-.24.961.961,0,0,0-.242-1.347,9.309,9.309,0,0,0-1.948-1.03,4.907,4.907,0,0,0,1.617-3.248A7.4,7.4,0,0,1,23.9,11.2a.982.982,0,0,0,1.36-.24.961.961,0,0,0-.242-1.347,9.308,9.308,0,0,0-1.948-1.03,4.9,4.9,0,0,0,1.633-3.649,4.98,4.98,0,0,0-9.96,0,4.9,4.9,0,0,0,1.621,3.639q-.2.078-.406.166a9.293,9.293,0,0,0-1.72.978,4.987,4.987,0,0,0-9.6,1.837,4.9,4.9,0,0,0,1.612,3.631,9.343,9.343,0,0,0-5.67,5.787A2.851,2.851,0,0,0,1,23.567,2.909,2.909,0,0,0,3.372,24.76h8.5a.967.967,0,1,0,0-1.934Zm7.86-20.891a3,3,0,1,1-3.027,3A3.016,3.016,0,0,1,19.728,1.934ZM9.621,8.553a3,3,0,1,1-3.027,3A3.016,3.016,0,0,1,9.621,8.553Z" transform="translate(-0.44)" fill="#01b81a"/>
        <path id="Path_13124" data-name="Path 13124" d="M275.08,322.536a1,1,0,0,0-1.394.231l-4.926,6.881a.571.571,0,0,1-.822.043l-3.189-3.062a1,1,0,0,0-1.384,1.442l3.192,3.065a2.577,2.577,0,0,0,1.773.708q.085,0,.17-.006a2.577,2.577,0,0,0,1.832-.954l.034-.044,4.946-6.909A1,1,0,0,0,275.08,322.536Z" transform="translate(-250.498 -307.037)" fill="#01b81a"/>
      </g>
    </g>
  </g>
</svg>
