<svg id="followers_1_" data-name="followers (1)" xmlns="http://www.w3.org/2000/svg" width="24.997" height="24.997" viewBox="0 0 24.997 24.997">
  <path id="Path_13121" data-name="Path 13121" d="M15.163,73.021a4.838,4.838,0,1,0-7.825-3.265,3.855,3.855,0,0,0-4.5,6.191A4.749,4.749,0,0,0,0,80.291v4.48a1.5,1.5,0,0,0,1.494,1.494h15.9a1.734,1.734,0,0,0,1.732-1.732V78.657A6,6,0,0,0,15.163,73.021Zm-3.007-7.143a3.361,3.361,0,1,1-3.381,3.361A3.375,3.375,0,0,1,12.156,65.879Zm-6.672,4.87A2.388,2.388,0,0,1,7.821,73.7a6.04,6.04,0,0,0-1.689,1.737,2.391,2.391,0,1,1-.648-4.689ZM1.465,84.772v-4.48a3.281,3.281,0,0,1,3.277-3.277H5.42a5.975,5.975,0,0,0-.229,1.644v5.877a1.74,1.74,0,0,0,.021.267H1.494a.032.032,0,0,1-.03-.03Zm16.192-.238a.271.271,0,0,1-.267.267H6.923a.271.271,0,0,1-.267-.267V78.657a4.532,4.532,0,0,1,4.527-4.527H13.13a4.532,4.532,0,0,1,4.527,4.527Z" transform="translate(0 -61.269)" fill="#0af"/>
  <path id="Path_13122" data-name="Path 13122" d="M401.748,2.068H400.4V.732a.732.732,0,1,0-1.465,0V2.068h-1.346a.732.732,0,0,0,0,1.465h1.346V4.868a.732.732,0,1,0,1.465,0V3.533h1.346a.732.732,0,1,0,0-1.465Z" transform="translate(-377.484 0)" fill="#0af"/>
</svg>
