<svg xmlns="http://www.w3.org/2000/svg" width="70" height="69.935" viewBox="0 0 70 69.935">
  <path id="globe" d="M69.97,25.213v-.175a35.07,35.07,0,0,0-65.861,0s0,0,0,.175a34.579,34.579,0,0,0,0,23.567s0,0,0,.175a35.07,35.07,0,0,0,65.861,0V48.78a34.579,34.579,0,0,0,0-23.567ZM9.826,44.01a27.424,27.424,0,0,1,0-14.028h6.523a58.671,58.671,0,0,0,0,14.028ZM12.7,51.024h4.91a42.61,42.61,0,0,0,3.507,9.013A28.056,28.056,0,0,1,12.7,51.024Zm4.91-28.056H12.7a28.056,28.056,0,0,1,8.312-9.013,42.61,42.61,0,0,0-3.4,9.013ZM33.463,64a22.234,22.234,0,0,1-8.522-12.976h8.522Zm0-19.99H23.433a50.36,50.36,0,0,1,0-14.028h10.03Zm0-21.042H24.941A22.234,22.234,0,0,1,33.463,9.993Zm27.775,0h-4.91a42.609,42.609,0,0,0-3.507-9.013,28.056,28.056,0,0,1,8.417,9.013ZM40.477,9.993A22.234,22.234,0,0,1,49,22.969H40.477Zm0,54.007V51.024H49A22.234,22.234,0,0,1,40.477,64Zm10.03-19.99H40.477V29.983h10.03A50.36,50.36,0,0,1,50.507,44.01Zm2.42,16.027a42.61,42.61,0,0,0,3.507-9.013h4.91A28.056,28.056,0,0,1,52.926,60.037ZM64.114,44.01H57.591A56.673,56.673,0,0,0,58.012,37a57.09,57.09,0,0,0-.421-7.014h6.523A27.425,27.425,0,0,1,64.114,44.01Z" transform="translate(-2.04 -2.029)" fill="#599700"/>
</svg>
