<svg xmlns="http://www.w3.org/2000/svg" width="15.003" height="14.327" viewBox="0 0 15.003 14.327">
  <path id="star" d="M16.985,7.855a.749.749,0,0,0-.644-.5l-4.263-.622-1.91-3.873a.749.749,0,0,0-1.348,0L6.909,6.724l-4.263.629a.738.738,0,0,0-.42,1.259l3.094,3-.749,4.255a.749.749,0,0,0,1.086.8l3.836-2,3.821,2.008a.7.7,0,0,0,.345.09.753.753,0,0,0,.742-.891l-.749-4.255,3.094-3A.749.749,0,0,0,16.985,7.855Zm-4.607,3a.749.749,0,0,0-.217.667l.539,3.139-2.817-1.5a.749.749,0,0,0-.7,0l-2.817,1.5L6.9,11.519a.749.749,0,0,0-.217-.667L4.436,8.6,7.59,8.147a.749.749,0,0,0,.569-.412L9.493,4.881,10.9,7.743a.749.749,0,0,0,.569.412l3.154.457Z" transform="translate(-2.006 -2.436)" fill="#fff"/>
</svg>
